<svg id="Layer_1" data-name="Layer 1" xmlns="http://www.w3.org/2000/svg" viewBox="0 0 20 20"><defs><style>.cls-1{fill:#fff;fill-rule:evenodd;}</style></defs><title>icon_ap</title><path class="cls-1" d="M7.75,10.19,4.37,13.57H2.68a1.69,1.69,0,0,1,0-3.38ZM9.83,8.11,9,8.9a1.63,1.63,0,0,1-.73.17H2.68a1.69,1.69,0,0,1,0-3.38H8.31A1.69,1.69,0,0,1,10,7.38,1.63,1.63,0,0,1,9.83,8.11ZM2.68,14.69H8.31a1.69,1.69,0,1,1,0,3.38H2.68a1.69,1.69,0,0,1,0-3.38Zm0-13.5H8.31a1.69,1.69,0,1,1,0,3.38H2.68a1.69,1.69,0,0,1,0-3.38Zm9.57,12.38H7.75l5.62-6.75L19,13.57H14.5v4.49a1.13,1.13,0,1,1-2.25,0Z"/></svg>