<?xml version="1.0" encoding="utf-8"?>
<!-- Generator: Adobe Illustrator 24.3.0, SVG Export Plug-In . SVG Version: 6.00 Build 0)  -->
<svg version="1.1" id="Layer_1" xmlns="http://www.w3.org/2000/svg" xmlns:xlink="http://www.w3.org/1999/xlink" x="0px" y="0px"
	 viewBox="0 0 20 20" style="enable-background:new 0 0 20 20;" xml:space="preserve">
<style type="text/css">
	.st0{fill-rule:evenodd;clip-rule:evenodd;}
</style>
<path class="st0" d="M7.8,10.2l-3.4,3.4H2.7c-0.9,0-1.7-0.8-1.7-1.7c0-0.9,0.8-1.7,1.7-1.7H7.8z M9.8,8.1L9,8.9
	C8.8,9,8.5,9.1,8.3,9.1H2.7C1.7,9.1,1,8.3,1,7.4s0.8-1.7,1.7-1.7h5.6c0.9,0,1.7,0.8,1.7,1.7v0C10,7.6,9.9,7.9,9.8,8.1z M2.7,14.7
	h5.6c0.9,0,1.7,0.8,1.7,1.7s-0.8,1.7-1.7,1.7H2.7c-0.9,0-1.7-0.8-1.7-1.7S1.7,14.7,2.7,14.7z M2.7,1.2h5.6c0.9,0,1.7,0.8,1.7,1.7
	S9.2,4.6,8.3,4.6H2.7C1.7,4.6,1,3.8,1,2.9S1.7,1.2,2.7,1.2z M12.2,13.6H7.8l5.6-6.8l5.6,6.8h-4.5v4.5c0.1,0.6-0.4,1.2-1,1.2
	c-0.6,0.1-1.2-0.4-1.2-1c0-0.1,0-0.1,0-0.2V13.6z"/>
</svg>
