<?xml version="1.0" encoding="utf-8"?>
<!-- Generator: Adobe Illustrator 24.3.0, SVG Export Plug-In . SVG Version: 6.00 Build 0)  -->
<svg version="1.1" id="Layer_1" xmlns="http://www.w3.org/2000/svg" xmlns:xlink="http://www.w3.org/1999/xlink" x="0px" y="0px"
	 viewBox="0 0 20 20" style="enable-background:new 0 0 20 20;" xml:space="preserve">
<style type="text/css">
	.st0{fill-rule:evenodd;clip-rule:evenodd;}
</style>
<path id="Combined-Shape" class="st0" d="M3.2,0.9h13.5c1.2,0,2.2,1,2.2,2.2l0,0v13.5c0,1.2-1,2.2-2.2,2.2H3.2c-1.2,0-2.2-1-2.2-2.2
	v0V3.1C1,1.9,2,0.9,3.2,0.9L3.2,0.9z M7.2,8.8c0.9,0,1.7-0.7,1.7-1.7S8.1,5.4,7.2,5.4c-0.9,0-1.7,0.7-1.7,1.7c0,0,0,0,0,0
	C5.5,8,6.3,8.8,7.2,8.8z M12.8,14.4c0.9,0,1.7-0.8,1.7-1.7S13.7,11,12.8,11s-1.7,0.8-1.7,1.7S11.9,14.4,12.8,14.4
	C12.8,14.4,12.8,14.4,12.8,14.4z M13.6,5.5l-7.9,8l0.8,0.8l8-8L13.6,5.5z"/>
</svg>
