<?xml version="1.0" encoding="utf-8"?>
<!-- Generator: Adobe Illustrator 26.5.0, SVG Export Plug-In . SVG Version: 6.00 Build 0)  -->
<svg version="1.1" id="Layer_1" xmlns="http://www.w3.org/2000/svg" xmlns:xlink="http://www.w3.org/1999/xlink" x="0px" y="0px"
	 viewBox="0 0 20 20" style="enable-background:new 0 0 20 20;" xml:space="preserve">
<style type="text/css">
	.st0{fill:#FFFFFF;}
	.st1{clip-path:url(#SVGID_00000138558418495289664240000010883421026024381103_);}
</style>
<path d="M19.5,9.3v7.2c0,1.5-1.3,3-2.9,3.1h-0.2H3.6c-1.5,0-3-1.4-3.1-3v-0.2V9.3l9.2,4.4c0.1,0.1,0.2,0.1,0.4,0.1
	c0.1,0,0.2,0,0.2-0.1h0.1L19.5,9.3z M10,7.2c1.7,0,3.3,1.3,3.3,2.8v0.2L10,11.8l-3.4-1.6V10C6.7,8.4,8.3,7.2,10,7.2z M14,0.5
	c0.8,0,1.6,0.6,1.7,1.6v0.1v3.1l3.4,2.1l-5.3,2.5v-6c-0.3,0-0.8-0.5-0.9-1.4V2.4H7.2c0,0.7-0.5,1.4-0.8,1.5H6.2V10L0.9,7.5l3.4-2.1
	V2.2c0-0.8,0.6-1.6,1.6-1.7H6H14z M10,3.4c0.5,0,0.9,0.4,0.9,0.9s-0.4,1-0.9,1s-0.9-0.4-0.9-1S9.5,3.4,10,3.4z"/>
<g>
	<g>
		<g>
			<polygon id="SVGID_1_" class="st0" points="14.9,17.7 12.8,18.7 13.2,16.4 11.5,14.6 13.9,14.4 14.9,12.1 16.1,14.4 18.6,14.6 
				16.7,16.4 17.2,18.7 			"/>
		</g>
		<g>
			<g>
				<g>
					<defs>
						<polygon id="SVGID_00000013893410120451803280000000955296313215837081_" points="14.9,17.7 12.8,18.7 13.2,16.4 11.5,14.6 
							13.9,14.4 14.9,12.1 16.1,14.4 18.6,14.6 16.7,16.4 17.2,18.7 						"/>
					</defs>
					<use xlink:href="#SVGID_00000013893410120451803280000000955296313215837081_"  style="overflow:visible;fill:#FFFFFF;"/>
					<clipPath id="SVGID_00000033359374460934615350000006304053718332363189_">
						<use xlink:href="#SVGID_00000013893410120451803280000000955296313215837081_"  style="overflow:visible;"/>
					</clipPath>
					<g style="clip-path:url(#SVGID_00000033359374460934615350000006304053718332363189_);">
						<g>
							
								<rect id="SVGID_00000152972128924552352600000004859136010552231083_" x="-5.2" y="6.1" class="st0" width="105.9" height="105.9"/>
						</g>
					</g>
				</g>
			</g>
		</g>
	</g>
</g>
</svg>
