<?xml version="1.0" encoding="utf-8"?>
<!-- Generator: Adobe Illustrator 24.3.0, SVG Export Plug-In . SVG Version: 6.00 Build 0)  -->
<svg version="1.1" id="Layer_1" xmlns="http://www.w3.org/2000/svg" xmlns:xlink="http://www.w3.org/1999/xlink" x="0px" y="0px"
	 viewBox="0 0 20 20" style="enable-background:new 0 0 20 20;" xml:space="preserve">
<style type="text/css">
	.st0{fill-rule:evenodd;clip-rule:evenodd;}
</style>
<path class="st0" d="M16.9,10.2c-0.6-0.2-1.2-0.4-1.9-0.4c-2.8,0-5.1,2.3-5.1,5.1c0,0,0,0,0,0c0,0.2,0,0.4,0,0.6l0,0l-5,3.2
	c-0.1,0.1-0.3,0.1-0.4,0c-0.1-0.1-0.2-0.2-0.2-0.4l1.1-5.8L1.1,8.2C1,8.1,1,7.9,1,7.8c0.1-0.1,0.2-0.2,0.4-0.2h5.8l2.5-6.5
	c0.1-0.2,0.3-0.3,0.5-0.2c0.1,0,0.2,0.1,0.2,0.2l2.5,6.5h5.8c0.2,0,0.3,0.1,0.4,0.2c0,0.1,0,0.3-0.1,0.4L16.9,10.2z M15.1,18.8
	c-2.2,0-3.9-1.8-3.9-3.9s1.8-3.9,3.9-3.9s3.9,1.8,3.9,3.9c0,0,0,0,0,0C19,17.1,17.2,18.8,15.1,18.8C15.1,18.8,15.1,18.8,15.1,18.8z
	 M15.6,14.3v-2.3h-1.1v3.4h3.4v-1.1L15.6,14.3z"/>
</svg>
