<svg id="Layer_1" data-name="Layer 1" xmlns="http://www.w3.org/2000/svg" viewBox="0 0 20 20"><defs><style>.cls-1{fill:#fff;}</style></defs><title>menuIcon</title><circle class="cls-1" cx="10" cy="10.2" r="3.4"/><path class="cls-1" d="M18.9,8.8l-1.5-.5a10.84,10.84,0,0,0-.8-1.9l.7-1.5A8.56,8.56,0,0,0,15.4,3l-1.5.7A10.84,10.84,0,0,0,12,2.9l-.6-1.5a5.7,5.7,0,0,0-1.3-.1,6.6,6.6,0,0,0-1.4.1L8.1,2.8a11.92,11.92,0,0,0-2,.8L4.7,2.9a12.61,12.61,0,0,0-2,2l.7,1.5a10.84,10.84,0,0,0-.8,1.9l-1.5.5A6.6,6.6,0,0,0,1,10.2a6.6,6.6,0,0,0,.1,1.4l1.5.5A10.84,10.84,0,0,0,3.4,14l-.7,1.5a8.56,8.56,0,0,0,1.9,1.9l1.5-.7a10.84,10.84,0,0,0,1.9.8L8.6,19a5.7,5.7,0,0,0,1.3.1,6.6,6.6,0,0,0,1.4-.1l.5-1.5a10.84,10.84,0,0,0,1.9-.8l1.5.7a8.56,8.56,0,0,0,1.9-1.9L16.6,14a10.84,10.84,0,0,0,.8-1.9l1.5-.6a5.7,5.7,0,0,0,.1-1.3A6.15,6.15,0,0,0,18.9,8.8ZM10,15.7a5.5,5.5,0,1,1,5.5-5.5A5.55,5.55,0,0,1,10,15.7Z"/></svg>