<svg id="Layer_1" data-name="Layer 1" xmlns="http://www.w3.org/2000/svg" viewBox="0 0 20 20"><defs><style>.cls-1{fill:#fff;fill-rule:evenodd;}</style></defs><title>icon_po</title><path id="icon-spreadsheet" class="cls-1" d="M3.25.92H16.74A1.13,1.13,0,0,1,17.87,2V17.79a1.13,1.13,0,0,1-1.13,1.13H3.25a1.13,1.13,0,0,1-1.13-1.13V2A1.13,1.13,0,0,1,3.25.92ZM4.37,3.17V5.42H7.75V3.17Zm4.5,0V5.42h6.75V3.17ZM4.37,6.54V8.79H7.75V6.54Zm4.5,0V8.79h6.75V6.54ZM4.37,9.92v6.75H7.75V9.92Zm4.5,0v6.75h6.75V9.92Z"/></svg>