<svg id="Layer_1" data-name="Layer 1" xmlns="http://www.w3.org/2000/svg" viewBox="0 0 20 20"><defs><style>.cls-1{fill:#fff;fill-rule:evenodd;}</style></defs><title>icon_pr_uet</title><path class="cls-1" d="M16.92,10.17a5,5,0,0,0-1.86-.36A5.06,5.06,0,0,0,10,14.88a4.73,4.73,0,0,0,0,.65l0,0L5,18.75a.38.38,0,0,1-.41,0,.37.37,0,0,1-.17-.37l1.11-5.82L1.1,8.21A.45.45,0,0,1,1,7.79a.39.39,0,0,1,.35-.23H7.12l2.52-6.5a.38.38,0,0,1,.71,0l2.52,6.5h5.75a.41.41,0,0,1,.36.23.43.43,0,0,1-.09.42Zm-1.86,8.64A3.94,3.94,0,1,1,19,14.88,3.93,3.93,0,0,1,15.06,18.81Zm.56-4.5V12.06H14.5v3.38h3.37V14.31Z"/></svg>