<?xml version="1.0" encoding="utf-8"?>
<!-- Generator: Adobe Illustrator 24.3.0, SVG Export Plug-In . SVG Version: 6.00 Build 0)  -->
<svg version="1.1" id="Layer_1" xmlns="http://www.w3.org/2000/svg" xmlns:xlink="http://www.w3.org/1999/xlink" x="0px" y="0px"
	 viewBox="0 0 20 20" style="enable-background:new 0 0 20 20;" xml:space="preserve">
<path d="M10,18.1c-4.4,0-8-3.6-8-8s3.6-8,8-8s8,3.6,8,8S14.4,18.1,10,18.1z M9,4.1v7h2v-7H9z M11,9.1v2h4v-2H11z"/>
<g>
	<defs>
		<path id="SVGID_1_" d="M10,18.1c-4.4,0-8-3.6-8-8s3.6-8,8-8s8,3.6,8,8S14.4,18.1,10,18.1z M9,4.1v7h2v-7H9z M11,9.1v2h4v-2H11z"/>
	</defs>
	<clipPath id="SVGID_2_">
		<use xlink:href="#SVGID_1_"  style="overflow:visible;"/>
	</clipPath>
</g>
</svg>
