<?xml version="1.0" encoding="utf-8"?>
<!-- Generator: Adobe Illustrator 24.3.0, SVG Export Plug-In . SVG Version: 6.00 Build 0)  -->
<svg version="1.1" id="Outlined" xmlns="http://www.w3.org/2000/svg" xmlns:xlink="http://www.w3.org/1999/xlink" x="0px" y="0px"
	 viewBox="0 0 1291.4 1023.6" style="enable-background:new 0 0 1291.4 1023.6;" xml:space="preserve">
<style type="text/css">
	.st0{fill:#303030;}
	.st1{fill:#C6C6C6;}
	.st2{fill:#5E5E5E;}
	.st3{fill:none;stroke:#B26E3D;stroke-width:25;stroke-linecap:round;stroke-miterlimit:10;}
	.st4{fill:#1B1B1B;}
	.st5{fill:#00D639;}
	.st6{fill:#FFFFFF;}
	.st7{fill:none;stroke:#5E5E5E;stroke-width:12;stroke-linecap:round;stroke-miterlimit:10;}
	.st8{fill:#B26E3D;}
	.st9{fill:#474747;}
	.st10{fill:none;stroke:#B26E3D;stroke-width:11;stroke-linecap:round;stroke-miterlimit:10;}
	.st11{fill:#006A00;}
	.st12{fill:#008A21;}
</style>
<path class="st0" d="M774.7,254.2h265.9c9.7,0,17.5,7.8,17.5,17.5v582.4c0,9.7-7.8,17.5-17.5,17.5H774.7c-9.7,0-17.5-7.8-17.5-17.5
	V271.7C757.2,262.1,765,254.2,774.7,254.2z"/>
<path class="st1" d="M392.1,275.9c1.8-0.6,3.7-1,5.5-1.4c1.1-0.2,2.3-0.3,3.5-0.3c0.6,0,1.2,0,1.8,0.2h0.1l0.2-0.4l-0.2,0.3l0,0
	l0.2-0.4l-0.2,0.3l0.2-0.4l-0.2,0.4l0,0l0.2-0.4l-0.2,0.4l0,0l0,0l0,0l0,0l0,0c0.1,0.1,0.3,0.2,0.4,0.4c0.9,1.2,1.6,2.6,2.1,4
	c0.9,2.4,1.6,4.8,2.1,7.2c1.2,5.9,2,11.9,2.3,17.9c0.3,4.9,0.6,10,0.8,15c0.2,3.7,0.3,7.4,0.6,11c0.2,2.7,0.4,5.4,0.8,8.2
	c0.3,2.2,0.7,4.4,1.3,6.6c0.5,2,1.1,4,1.9,5.9s1.7,3.6,2.8,5.3c1,1.6,2.2,3.2,3.6,4.6c5.4,5.9,13,9.2,21,9.2l0,0
	c2.8,0,5.5-0.4,8.1-1.2c4.1-1.3,7.8-3.5,10.9-6.4c1.9-1.8,3.5-3.8,4.9-6c0.9-1.5,1.7-3,2.5-4.6c0.6-1.3,1.1-2.6,1.5-3.8
	c0.8-2.3,1.5-4.5,2.1-6.8c1.1-4.2,2-8.6,2.9-13.3c0.8-4.1,1.6-8.5,2.4-13.1c1.5-8,3.1-16.5,4.9-24.9c1.4-6.3,3-12.5,4.7-18.3
	c1.3-4.4,2.7-8.5,4.2-12.2c1.8-4.7,4-9.2,6.7-13.4c0.9-1.3,1.8-2.5,2.9-3.6c0.5-0.6,1.2-1.1,1.8-1.5c11.9-7.6,15.4-23.5,7.8-35.5
	c-7.5-11.7-22.9-15.3-34.8-8.2c-4,2.5-7.7,5.4-11,8.7c-2.9,2.9-5.6,6.1-8,9.4c-4.3,6.1-7.9,12.5-10.9,19.3
	c-2.5,5.8-4.8,11.8-6.7,17.9c-3.4,10.5-5.9,21.2-8.1,31.4c-1.6,7.6-3,14.9-4.2,21.5c-0.9,4.9-1.7,9.4-2.5,13.3
	c-0.6,2.9-1.1,5.5-1.6,7.5c-0.3,1.5-0.7,2.8-0.9,3.6c-0.1,0.3-0.2,0.5-0.2,0.7l-0.1,0.2l1.5,0.6l-1.5-0.6l0,0l1.5,0.6l-1.5-0.6
	l9.3,3.8l-8.8-4.9c-0.2,0.3-0.4,0.7-0.5,1l9.3,3.8l-8.8-4.9l15.3,8.5l-14-10.5c-0.5,0.6-0.9,1.3-1.3,2l15.3,8.5l-14-10.5l16.7,12.5
	l-14.6-14.6c-0.7,0.7-1.4,1.5-2,2.3l16.7,12.5l-14.7-14.8l15.8,16l-13.3-18.1c-0.9,0.6-1.7,1.4-2.5,2.1l15.8,16l-13.3-18.1l14,18.9
	l-8-22.1c-2.1,0.8-4.1,1.8-5.9,3.2l14,18.9l-8-22.1l8,22.6v-24c-2.8,0-5.6,0.5-8.2,1.4l8.2,22.6v-24l0,0v22.6l4.8-22.1
	c-1.6-0.3-3.2-0.5-4.8-0.5v22.6l4.8-22.1l-4.8,22.3l9.6-20.7c-1.5-0.7-3.1-1.3-4.8-1.6l-4.9,22.3l9.6-20.7l-9.5,20.5l13.5-18.1
	c-1.2-0.9-2.6-1.7-3.9-2.3l-9.5,20.5l13.5-18.1L443,340.2l15.9-15.1c-0.9-0.9-1.8-1.8-2.8-2.5L443,340.2l15.9-15.1l-14.5,13.8
	l17.5-9.7c-0.8-1.5-1.8-2.9-3-4.1l-14.5,13.8l17.5-9.7l-13.3,7.3l14.3-5.1c-0.3-0.8-0.6-1.5-1-2.2l-13.3,7.3l14.3-5.1l-6.6,2.4
	l6.8-1.7c0,0-0.1-0.2-0.2-0.7l-6.6,2.4l6.8-1.7l-0.4,0.1l0.4-0.1l0,0l-0.4,0.1l0.4-0.1c0,0-0.1-0.7-0.3-1.7s-0.2-2.2-0.3-3.7
	c-0.2-2.8-0.4-6.4-0.5-10.4c-0.3-7-0.6-15.4-1.5-24.3c-0.7-7-1.9-13.9-3.5-20.7c-1.4-5.6-3.3-11-5.7-16.1c-2-4.3-4.4-8.3-7.3-12
	c-2.4-3-5-5.8-8-8.3c-4.7-4-10.2-7.1-16-9.1c-6-2.1-12.4-3.1-18.8-3c-4.1,0-8.1,0.3-12.1,1c-4.2,0.7-8.3,1.7-12.3,3
	c-13.5,4.3-21,18.7-16.8,32.2C364.1,272.6,378.6,280.2,392.1,275.9z"/>
<path class="st2" d="M466.3,867c-17.9,0-32.7-13.9-33.9-31.8l-20.6-316.5c-17.6,85-42.6,168.2-74.7,248.9l-25.3,63.5
	c-6.9,17.4-26.7,26-44.2,19c-17.4-6.9-26-26.7-19-44.2l25.3-63.5c32.4-81.5,57.3-165.8,74.2-251.9l22.6-115.1l0.3-1.2
	c4.2-15.4,18.2-31.8,45.3-31.4c9.6,0.1,19,2.4,25.9,4c1.6,0.4,3.9,0.9,4.6,1c-0.6-0.1-1.2-0.2-1.8-0.2v5
	c13.2,6.2,22.8,18.2,25.9,32.5l0.5,2.4l28.8,443.1c1.2,18.7-13,34.9-31.7,36.1C467.8,867,467,867,466.3,867z"/>
<path class="st3" d="M515.5,194.4c0,0-11.2-0.6-15.3,11.9"/>
<path class="st1" d="M456.7,309.8c22.4,54.7,4.6,62-39.5,62c-37.6,0-55.8,1.6-55.8-57.4s23.7-85.3,52.6-85.3
	S438.1,264.3,456.7,309.8z"/>
<path class="st4" d="M761.3,254.2h265.9c9.7,0,17.5,7.8,17.5,17.5v582.4c0,9.7-7.8,17.5-17.5,17.5H761.3c-9.7,0-17.5-7.8-17.5-17.5
	V271.7C743.8,262.1,751.6,254.2,761.3,254.2z"/>
<path class="st4" d="M1007.1,825.4H781.4c-7.4,0-13.4-6-13.4-13.4l0,0V280.5h241.5c6.1,0,11.1,5,11.1,11.1V812
	C1020.5,819.4,1014.5,825.4,1007.1,825.4z"/>
<path class="st0" d="M677.1,280.5h331.6c6.5,0,11.8,5.3,11.8,11.8l0,0v248.9c0,6.5-5.3,11.8-11.8,11.8l0,0H677.1l0,0V280.5
	L677.1,280.5z"/>
<path class="st0" d="M779.4,568.9H1009c6.4,0,11.5,5.2,11.5,11.5v239.5c0,6.4-5.2,11.5-11.5,11.5H779.4c-6.4,0-11.5-5.2-11.5-11.5
	V580.4C767.9,574.1,773.1,568.9,779.4,568.9z"/>
<path class="st5" d="M450.7,280.5h234.6c5,0,9,4,9,9V544c0,5-4,9-9,9H450.7c-5,0-9-4-9-9V289.4C441.8,284.5,445.8,280.5,450.7,280.5
	z"/>
<circle class="st0" cx="894.2" cy="850.5" r="9.2"/>
<rect x="526.8" y="381.5" class="st6" width="80.1" height="23"/>
<rect x="526.8" y="381.5" class="st0" width="80.1" height="23"/>
<rect x="854.2" y="672.1" class="st4" width="80.1" height="23"/>
<path class="st2" d="M553.9,426.3h47c3.5,0,6.4,2.9,6.4,6.4l0,0c0,3.5-2.9,6.4-6.4,6.4h-47c-3.5,0-6.4-2.9-6.4-6.4l0,0
	C547.5,429.1,550.3,426.3,553.9,426.3z"/>
<path class="st0" d="M881.2,717.5h47c3.5,0,6.4,2.9,6.4,6.4l0,0c0,3.5-2.9,6.4-6.4,6.4h-47c-3.5,0-6.4-2.9-6.4-6.4l0,0
	C874.8,720.3,877.7,717.5,881.2,717.5z"/>
<path class="st4" d="M860.2,717.5h47c3.5,0,6.4,2.9,6.4,6.4l0,0c0,3.5-2.9,6.4-6.4,6.4h-47c-3.5,0-6.4-2.9-6.4-6.4l0,0
	C853.8,720.3,856.7,717.5,860.2,717.5z"/>
<path class="st4" d="M851.3,717.5h47c3.5,0,6.4,2.9,6.4,6.4l0,0c0,3.5-2.9,6.4-6.4,6.4h-47c-3.5,0-6.4-2.9-6.4-6.4l0,0
	C844.9,720.3,847.8,717.5,851.3,717.5z"/>
<line class="st7" x1="323.1" y1="858.1" x2="273.5" y2="845.8"/>
<line class="st7" x1="513.3" y1="861.2" x2="467.7" y2="861.2"/>
<path class="st8" d="M542.5,426.9l5.1,3.3l-5-3.5L542.5,426.9l5,3.3l-5-3.5V426.9c-1.9,2.3-4.2,4.3-6.8,5.8
	c-2.3,1.4-4.8,2.5-7.4,3.3c-3.5,1-7,1.5-10.7,1.5c-4.3,0-8.6-0.6-12.8-1.7c-5.7-1.5-11.3-3.5-16.6-6.2c-6.2-3-13.7-0.4-16.7,5.8
	s-0.4,13.7,5.8,16.7c6.9,3.4,14.1,6.1,21.5,8c6.2,1.6,12.5,2.4,18.8,2.4c6.8,0,13.5-1,19.9-3.2c3.9-1.3,7.6-3.1,11.2-5.2
	c3.9-2.4,7.5-5.3,10.7-8.6c1.5-1.5,2.8-3.1,4-4.9c3.8-5.8,2.2-13.5-3.6-17.3C554.1,419.5,546.3,421.1,542.5,426.9L542.5,426.9z"/>
<path class="st8" d="M408.3,192.4c-2.6,6.6,0.6,14.1,7.2,16.7s14.1-0.6,16.7-7.2c2.6-6.6-0.6-14.1-7.2-16.7
	c-4.7-1.9-10.1-0.8-13.7,2.7C410,189.2,408.9,190.7,408.3,192.4z"/>
<path class="st9" d="M412.1,174.8c-1.1,2.8,0.3,6,3.1,7.1c2.8,1.1,6-0.3,7.1-3.1s-0.3-6-3.1-7.1c-2-0.8-4.3-0.3-5.8,1.2
	C412.8,173.4,412.4,174.1,412.1,174.8z"/>
<path class="st9" d="M425,185.2c2.6,1,4.8,2.8,6.2,5.2c0.8,1.3,1.4,2.7,1.7,4.1l-24.8-1.5c0.1-0.2,0.1-0.4,0.2-0.6
	C410.9,185.8,418.4,182.5,425,185.2L425,185.2L425,185.2z"/>
<path class="st0" d="M521.2,426.3h47c3.5,0,6.4,2.9,6.4,6.4l0,0c0,3.5-2.9,6.4-6.4,6.4h-47c-3.5,0-6.4-2.9-6.4-6.4l0,0
	C514.8,429.1,517.6,426.3,521.2,426.3z"/>
<path class="st0" d="M532.8,426.3h47c3.5,0,6.4,2.9,6.4,6.4l0,0c0,3.5-2.9,6.4-6.4,6.4h-47c-3.5,0-6.4-2.9-6.4-6.4l0,0
	C526.4,429.1,529.3,426.3,532.8,426.3z"/>
<path class="st8" d="M544,432.3c-1.7,2.6-4,4.8-6.6,6.4c-1.6,1-3.5,1.6-5.5,1.6c-0.8,0-1.5-0.1-2.3-0.3c-2.9-0.9-6,0.7-6.9,3.6
	s0.7,6,3.6,6.9c0.1,0,0.2,0,0.2,0.1c1.7,0.5,3.5,0.7,5.3,0.7c3.9,0,7.7-1.1,11-3.1c4-2.4,7.5-5.7,10.1-9.6c1.7-2.5,1.2-5.9-1.3-7.7
	C549.2,429.2,545.8,429.8,544,432.3L544,432.3L544,432.3z"/>
<path class="st10" d="M522,197.6c-11.5,1.9-16.7,8.1-17.7,14"/>
<path class="st1" d="M376.9,226.9c-4.5,1.4-8.6,3.5-12.3,6.3c-2.9,2.2-5.5,4.7-7.9,7.5c-3.6,4.4-6.5,9.4-8.7,14.6
	c-1.6,3.8-2.9,7.7-4,11.6c-1.6,6.1-2.8,12.3-3.5,18.6c-0.7,6.7-1.1,13.4-1.1,20.1c0,17.2,2.1,34.3,6.2,51.1
	c2.1,8.7,4.8,17.2,8.1,25.5c3.3,8.4,7.3,16.5,12,24.1c2.1,3.4,4.7,6.6,7.5,9.4c2.4,2.5,5.1,4.7,7.8,6.8c5.1,3.8,10.4,7.2,16,10.1
	c4.9,2.6,10,5,15.2,7.3c9.1,4,18.6,7.5,27.8,10.6c13.7,4.6,26.7,8.3,36.4,10.9s16,4,16.2,4c13.8,3.1,27.6-5.6,30.7-19.4
	c3.1-13.8-5.6-27.6-19.4-30.7l-4.5,20.1l4.5-20.1l0,0l-4.5,20.1l4.5-20.1l-3.4,15.4l3.5-15.3l0,0l-3.5,15.3l3.5-15.3l0,0
	c0,0-5.8-1.3-14.5-3.6c-6.6-1.7-14.9-4.1-23.7-6.8c-6.6-2.1-13.5-4.4-20.2-6.9c-5-1.9-9.9-3.8-14.3-5.8c-3.4-1.5-6.5-3-9.3-4.5
	c-3.5-1.8-6.8-3.8-9.9-6.1c-0.8-0.6-1.6-1.3-2.3-2c-0.2-0.2-0.3-0.4-0.4-0.4l0,0l-2.2,1.6l2.3-1.4c-0.1-0.1-0.1-0.2-0.1-0.2
	l-2.2,1.6l2.3-1.4c-3.1-5.1-5.8-10.5-8-16.1c-3.6-9.3-6.3-18.9-8-28.7c-1.7-9.6-2.6-19.3-2.7-29c0-5.4,0.3-10.8,1-16.2
	c0.4-3.1,1-6.3,1.9-9.3c0.4-1.6,1-3.1,1.6-4.7c0.3-0.6,0.6-1.2,0.9-1.8l0.2-0.3l0,0l0,0l-4.3-3.6l3.2,4.4c0.4-0.3,0.8-0.6,1.1-1
	l-4.3-3.4l3.2,4.4l-6.7-9.1l3.3,10.8c1.2-0.4,2.4-0.9,3.4-1.7l-6.7-9.1l3.3,10.8c13.4-4.7,20.5-19.3,15.8-32.7
	C403.3,230.7,389.9,223.5,376.9,226.9z"/>
<g id="Diagram">
	<path class="st11" d="M561.9,168.3l40-54.9c30.3,22.1,37,64.6,14.8,94.9c-4.2,5.8-9.2,10.9-15.1,15L561.9,168.3z"/>
	<path class="st5" d="M561.9,168.3l21.1-64.6c6.8,2.2,13.2,5.4,18.9,9.7L561.9,168.3z"/>
	<path class="st12" d="M561.9,168.3L541,103.7c13.6-4.6,28.4-4.6,42,0.1L561.9,168.3z"/>
	<path class="st5" d="M561.9,168.3L541,103.7c-21.4,6.9-36.7,22.1-43.7,43.5c-11.7,35.7,7.8,74,43.5,85.7c21.4,7,42.7,3.7,60.9-9.5
		L561.9,168.3z"/>
</g>
<path class="st8" d="M499.8,199.5c1.3-1.8,2.2-3.8,2.9-5.9c0.8-2.6,1.2-5.4,1.1-8.1c0-0.7,0-1.4-0.1-2.1c-0.1-2.5-2.3-4.4-4.8-4.2
	c-2.5,0.1-4.4,2.3-4.2,4.8l0,0c0,0.6,0,1.1,0,1.6c0,1.9-0.2,3.7-0.7,5.5c-0.3,1.2-0.9,2.3-1.6,3.4c-1.4,2-1,4.8,1.1,6.3
	C495.5,202,498.3,201.5,499.8,199.5L499.8,199.5L499.8,199.5z"/>
</svg>
