<?xml version="1.0" encoding="utf-8"?>
<!-- Generator: Adobe Illustrator 24.3.0, SVG Export Plug-In . SVG Version: 6.00 Build 0)  -->
<svg version="1.1" id="Layer_1" xmlns="http://www.w3.org/2000/svg" xmlns:xlink="http://www.w3.org/1999/xlink" x="0px" y="0px"
	 viewBox="0 0 20 20" style="enable-background:new 0 0 20 20;" xml:space="preserve">
<path d="M16.7,1.1H3.2C2,1.2,1,2.2,1,3.4v13.5c0,1.2,1,2.2,2.2,2.2h13.5c1.2,0,2.3-1,2.3-2.2c0,0,0,0,0-0.1V3.4
	C19,2.1,18,1.1,16.7,1.1C16.7,1.1,16.7,1.1,16.7,1.1z M9,17.6c-4.1,0-7.4-3.3-7.4-7.5C1.6,6,4.9,2.7,9,2.7c0.9,0,1.8,0.2,2.6,0.5
	h-0.1c-3.8,0-6.8,3.1-6.8,6.9c0,0,0,0,0,0.1c-0.1,3.8,3,6.9,6.8,7c0,0,0,0,0,0h0.1C10.8,17.5,9.9,17.6,9,17.6z M9.9,10.2l-1-0.7
	l-1,0.7L8.3,9l-1-0.7h1.2l0.4-1.2l0.4,1.2h1.2L9.5,9L9.9,10.2z M11,13.8l0.4,1.2l-1-0.7l-1,0.7l0.4-1.2l-1-0.8H10l0.4-1.2l0.3,1.2
	H12L11,13.8z M11.8,7.3l0.4-1.2l-1-0.7h1.2l0.3-1.2l0.4,1.2h1.2l-1,0.7l0.4,1.2l-1-0.7L11.8,7.3z M15.9,13.8l0.3,1.2l-1-0.7l-1,0.7
	l0.4-1.2l-1-0.7h1.2l0.4-1.2l0.4,1.1h1.2L15.9,13.8z M17.4,9.1l0.4,1.2l-1-0.7l-1,0.7L16.2,9l-1-0.7h1.2l0.4-1.2l0.4,1.2h1.2
	L17.4,9.1z"/>
</svg>
