<?xml version="1.0" encoding="utf-8"?>
<!-- Generator: Adobe Illustrator 24.3.0, SVG Export Plug-In . SVG Version: 6.00 Build 0)  -->
<svg version="1.1" id="Layer_1" xmlns="http://www.w3.org/2000/svg" xmlns:xlink="http://www.w3.org/1999/xlink" x="0px" y="0px"
	 viewBox="0 0 20 20" style="enable-background:new 0 0 20 20;" xml:space="preserve">
<style type="text/css">
	.st0{fill-rule:evenodd;clip-rule:evenodd;}
</style>
<path id="icon-spreadsheet" class="st0" d="M3.2,0.9h13.5c0.6,0,1.1,0.5,1.1,1.1v15.8c0,0.6-0.5,1.1-1.1,1.1H3.2
	c-0.6,0-1.1-0.5-1.1-1.1V2C2.1,1.4,2.6,0.9,3.2,0.9z M4.4,3.2v2.2h3.4V3.2H4.4z M8.9,3.2v2.2h6.8V3.2H8.9z M4.4,6.5v2.2h3.4V6.5H4.4
	z M8.9,6.5v2.2h6.8V6.5H8.9z M4.4,9.9v6.8h3.4V9.9H4.4z M8.9,9.9v6.8h6.8V9.9H8.9z"/>
</svg>
