<svg id="Layer_1" data-name="Layer 1" xmlns="http://www.w3.org/2000/svg" viewBox="0 0 20 20"><defs><style>.cls-1{fill:#fff;}</style></defs><title>icon_ts</title><path class="cls-1" d="M16.7,1.13H3.2A2.25,2.25,0,0,0,1,3.38v13.5A2.25,2.25,0,0,0,3.2,19.13H16.7A2.25,2.25,0,0,0,19,16.88V3.38A2.25,2.25,0,0,0,16.7,1.13ZM9,17.57a7.44,7.44,0,1,1,2.64-14.4h-.06a6.88,6.88,0,0,0-6.81,7,6.89,6.89,0,0,0,6.81,7h.06A7.46,7.46,0,0,1,9,17.57Zm.92-7.34-1-.73-1,.73.38-1.18-1-.74H8.47l.39-1.19.38,1.19h1.25l-1,.74ZM11,13.76,11.35,15l-1-.74-1,.74.38-1.19L8.7,13H10l.39-1.19L10.72,13H12Zm.83-6.45.39-1.18-1-.74h1.25L12.8,4.2l.39,1.19h1.25l-1,.74.38,1.18-1-.73Zm4.11,6.45L16.28,15l-1-.74-1,.74.39-1.19-1-.73h1.25l.38-1.19L15.66,13h1.25Zm1.48-4.71.38,1.18-1-.73-1,.73.39-1.18-1-.74h1.25l.38-1.19.39,1.19h1.25Z"/></svg>