<?xml version="1.0" encoding="utf-8"?>
<!-- Generator: Adobe Illustrator 24.3.0, SVG Export Plug-In . SVG Version: 6.00 Build 0)  -->
<svg version="1.1" id="Layer_1" xmlns="http://www.w3.org/2000/svg" xmlns:xlink="http://www.w3.org/1999/xlink" x="0px" y="0px"
	 viewBox="0 0 20 20" style="enable-background:new 0 0 20 20;" xml:space="preserve">
<path id="icon-briefcase" d="M3.8,6.7h14.1c0.6,0,1.1,0.5,1.1,1.1v10.1c0,0.6-0.5,1.1-1.1,1.1c0,0,0,0,0,0H2.1
	c-0.6,0-1.1-0.5-1.1-1.1l0,0V7.8c0-0.6,0.5-1.1,1.1-1.1h0H3.8z M14.5,5.6h-2.2V3.3H7.8v2.3H5.5V3.3c0-1.2,1-2.2,2.2-2.3c0,0,0,0,0,0
	h4.5c1.2,0,2.3,1,2.3,2.2c0,0,0,0,0,0V5.6z"/>
</svg>
