<?xml version="1.0" encoding="utf-8"?>
<!-- Generator: Adobe Illustrator 24.3.0, SVG Export Plug-In . SVG Version: 6.00 Build 0)  -->
<svg version="1.1" id="Layer_1" xmlns="http://www.w3.org/2000/svg" xmlns:xlink="http://www.w3.org/1999/xlink" x="0px" y="0px"
	 viewBox="0 0 20 20" style="enable-background:new 0 0 20 20;" xml:space="preserve">
<style type="text/css">
	.st0{fill-rule:evenodd;clip-rule:evenodd;}
</style>
<path id="icon-padlock-locked" class="st0" d="M12.2,6.8c0-1.1-0.3-3.4-2.2-3.4S7.8,5.7,7.8,6.8H5.5c0-3.1,1.4-5.6,4.5-5.6
	s4.5,2.5,4.5,5.6H12.2z M4.4,7.9h12.3c0.6,0,1.1,0.5,1.1,1.1v9c0,0.6-0.5,1.1-1.1,1.1c0,0,0,0,0,0H3.2c-0.6,0-1.1-0.5-1.1-1.1V9
	c0-0.6,0.5-1.1,1.1-1.1c0,0,0,0,0,0H4.4z M11.1,14.3c1.1-0.6,1.4-2,0.8-3.1c-0.6-1.1-2-1.4-3.1-0.8c-1.1,0.6-1.4,2-0.8,3.1
	c0.2,0.3,0.5,0.6,0.8,0.8v2.5h2.2V14.3z"/>
</svg>
