<?xml version="1.0" encoding="utf-8"?>
<!-- Generator: Adobe Illustrator 24.3.0, SVG Export Plug-In . SVG Version: 6.00 Build 0)  -->
<svg version="1.1" id="Layer_1" xmlns="http://www.w3.org/2000/svg" xmlns:xlink="http://www.w3.org/1999/xlink" x="0px" y="0px"
	 viewBox="0 0 20 20" style="enable-background:new 0 0 20 20;" xml:space="preserve">
<path d="M18,10.8c-2.3-1.6-5.4-1.1-7.1,1.2c-0.6,0.8-0.9,1.9-0.9,2.9c0,0.8,0.2,1.6,0.6,2.3l0.6,1.6H8.9v-4.5l-3.8,1.5L5.6,14
	c0-0.1,0-0.1-0.1-0.2L1,10.2l1-0.6c0.1,0,0.1-0.1,0.1-0.2L1.3,6.8l2.5,0.5c0.1,0,0.2,0,0.2-0.1l0.8-1.3l2,2.3C6.8,8.2,6.9,8.2,7,8.2
	c0.2,0,0.3-0.1,0.3-0.3c0,0,0,0,0-0.1L6.1,3c0,0,1.8,1,1.9,1c0.1,0,0.1,0,0.2-0.1l1.7-3.1l1.7,3.1C11.6,4,11.7,4,11.8,4l1.9-1
	c0,0-1.1,4.9-1.1,4.9c0,0.2,0.1,0.3,0.3,0.3l0,0c0.1,0,0.2,0,0.2-0.1l2-2.3l0.8,1.3c0,0.1,0.1,0.1,0.2,0.1l2.5-0.5
	c0,0-0.8,2.6-0.8,2.7c0,0.1,0,0.2,0.1,0.2l1,0.6L18,10.8z M15,18.9c-2.2,0-3.9-1.8-3.9-4s1.8-3.9,4-3.9c2.2,0,3.9,1.8,3.9,3.9
	C19,17.1,17.2,18.9,15,18.9L15,18.9z M15.6,14.4v-2.2h-1.1v3.4h3.4v-1.1H15.6z"/>
</svg>
