<svg id="Layer_1" data-name="Layer 1" xmlns="http://www.w3.org/2000/svg" xmlns:xlink="http://www.w3.org/1999/xlink" viewBox="0 0 16 16"><defs><style>.cls-1,.cls-2{fill:none;}.cls-1{clip-rule:evenodd;}.cls-3{clip-path:url(#clip-path);}.cls-4{clip-path:url(#clip-path-2);}.cls-5{clip-path:url(#clip-path-3);}.cls-6{clip-path:url(#clip-path-4);}.cls-7{clip-path:url(#clip-path-5);}.cls-8{clip-path:url(#clip-path-6);}.cls-9{clip-path:url(#clip-path-7);}.cls-10{clip-path:url(#clip-path-8);}.cls-11{clip-path:url(#clip-path-9);}.cls-12{clip-path:url(#clip-path-10);}.cls-13{clip-path:url(#clip-path-11);}.cls-14{clip-path:url(#clip-path-12);}.cls-15{clip-path:url(#clip-path-13);}.cls-16{clip-path:url(#clip-path-14);}.cls-17{clip-path:url(#clip-path-15);}.cls-18{clip-path:url(#clip-path-16);}.cls-19{clip-path:url(#clip-path-17);}.cls-20{clip-path:url(#clip-path-18);}.cls-21{clip-path:url(#clip-path-19);}.cls-22{clip-path:url(#clip-path-20);}.cls-23{clip-path:url(#clip-path-21);}.cls-24{clip-path:url(#clip-path-22);}.cls-25{clip-path:url(#clip-path-23);}.cls-26{clip-path:url(#clip-path-24);}.cls-27{clip-path:url(#clip-path-25);}.cls-28{clip-path:url(#clip-path-26);}.cls-29{clip-path:url(#clip-path-27);}.cls-30{clip-path:url(#clip-path-28);}.cls-31{fill:#fff;}</style><clipPath id="clip-path"><path class="cls-1" d="M-396,2a1,1,0,0,1,1-1h10a1,1,0,0,1,1,1V8a1,1,0,0,1-1,1h-10a1,1,0,0,1-1-1Z"/></clipPath><clipPath id="clip-path-2"><path class="cls-1" d="M-395,6h5V7h-5Zm0-2h8V5h-8Zm0-2h5V3h-5Z"/></clipPath><clipPath id="clip-path-3"><path class="cls-1" d="M-383.5,10a.5.5,0,0,0,.5-.49V4h0a1,1,0,0,1,1,1v6a1,1,0,0,1-1,1h-10a1,1,0,0,1-1-1V10Zm2,3a.5.5,0,0,0,.5-.49V7h0a1,1,0,0,1,1,1v6a1,1,0,0,1-1,1h-10a1,1,0,0,1-1-1V13Z"/></clipPath><clipPath id="clip-path-4"><circle class="cls-2" cx="-386.5" cy="9.5" r="3.5"/></clipPath><clipPath id="clip-path-5"><circle class="cls-2" cx="-386.5" cy="9.5" r="2.5"/></clipPath><clipPath id="clip-path-6"><rect class="cls-2" x="-383" y="11.59" width="1" height="3.83" transform="translate(-121.58 -266.51) rotate(-45)"/></clipPath><clipPath id="clip-path-7"><path class="cls-1" d="M-360,2a1,1,0,0,1,1-1h10a1,1,0,0,1,1,1V8a1,1,0,0,1-1,1h-10a1,1,0,0,1-1-1Z"/></clipPath><clipPath id="clip-path-8"><path class="cls-1" d="M-359,6h5V7h-5Zm0-2h8V5h-8Zm0-2h5V3h-5Z"/></clipPath><clipPath id="clip-path-9"><path class="cls-1" d="M-347.5,10a.5.5,0,0,0,.5-.49V4h0a1,1,0,0,1,1,1v6a1,1,0,0,1-1,1h-10a1,1,0,0,1-1-1V10Zm2,3a.5.5,0,0,0,.5-.49V7h0a1,1,0,0,1,1,1v6a1,1,0,0,1-1,1h-10a1,1,0,0,1-1-1V13Z"/></clipPath><clipPath id="clip-path-10"><path class="cls-1" d="M-351.25,14.81a.49.49,0,0,0,.68-.18.49.49,0,0,0-.18-.68.49.49,0,0,0-.68.18A.49.49,0,0,0-351.25,14.81ZM-347.87,7l1.74,1,1.32-1.61a2.26,2.26,0,0,1-.12,2A2.24,2.24,0,0,1-347,9.48l-3.12,5.4a1,1,0,0,1-1.36.37,1,1,0,0,1-.37-1.37l3.12-5.4a2.23,2.23,0,0,1-.07-2.37A2.24,2.24,0,0,1-347.14,5Z"/></clipPath><clipPath id="clip-path-11"><path class="cls-1" d="M-323,1a1,1,0,0,1,1-1h9a1,1,0,0,1,1,1V2a1,1,0,0,1-1,1h-9a1,1,0,0,1-1-1Zm0,4a1,1,0,0,1,1-1h9a1,1,0,0,1,1,1V6a1,1,0,0,1-1,1h-9a1,1,0,0,1-1-1Z"/></clipPath><clipPath id="clip-path-12"><path class="cls-1" d="M-323,9a1,1,0,0,1,1-1h9a1,1,0,0,1,1,1v4a1,1,0,0,1-1,1h-9a1,1,0,0,1-1-1Z"/></clipPath><clipPath id="clip-path-13"><path class="cls-1" d="M-314,1h1V2h-1Zm0,4h1V6h-1Z"/></clipPath><clipPath id="clip-path-14"><path class="cls-1" d="M-308.6,7.6a2,2,0,0,1,.6,1.46,2.06,2.06,0,0,1-.6,1.47l-.74.73a2,2,0,0,1-1.46.6,1.88,1.88,0,0,1-.53-.07l.63-.63a1.34,1.34,0,0,0,.88-.39l.73-.73a1.39,1.39,0,0,0,0-1.95,1.37,1.37,0,0,0-1-.4,1.36,1.36,0,0,0-1,.4l-.73.73a1.34,1.34,0,0,0-.39.88l-.63.63a1.88,1.88,0,0,1-.07-.53,2,2,0,0,1,.6-1.46l.73-.74a2,2,0,0,1,1.46-.6A2.06,2.06,0,0,1-308.6,7.6Zm-4.63,6.58a1.39,1.39,0,0,0,.39-.88l.63-.63a1.88,1.88,0,0,1,.07.53,2.06,2.06,0,0,1-.6,1.47l-.73.73a2.06,2.06,0,0,1-1.47.6,2,2,0,0,1-1.46-.6,2,2,0,0,1-.6-1.46,2.06,2.06,0,0,1,.6-1.47l.73-.73a2.06,2.06,0,0,1,1.47-.6,2.33,2.33,0,0,1,.53.07l-.63.63a1.39,1.39,0,0,0-.88.39l-.73.73a1.38,1.38,0,0,0,0,1.95,1.36,1.36,0,0,0,1,.4,1.37,1.37,0,0,0,1-.4Zm2.68-3.9-3.17,3.17a.52.52,0,0,1-.73,0,.52.52,0,0,1,0-.73l3.17-3.17a.52.52,0,0,1,.73,0A.52.52,0,0,1-310.55,10.28Z"/></clipPath><clipPath id="clip-path-15"><rect class="cls-2" x="-288" y="13" width="16" height="1"/></clipPath><clipPath id="clip-path-16"><path class="cls-1" d="M-287,8h2v4h-2Zm4-4h2v8h-2Zm8,1h2v7h-2Z"/></clipPath><clipPath id="clip-path-17"><rect class="cls-2" x="-279" width="2" height="12"/></clipPath><clipPath id="clip-path-18"><path class="cls-1" d="M-280,10a1,1,0,0,1,1-1h6a1,1,0,0,1,1,1v5a1,1,0,0,1-1,1h-6a1,1,0,0,1-1-1Z"/></clipPath><clipPath id="clip-path-19"><rect class="cls-2" x="-277" y="9" width="2" height="2"/></clipPath><clipPath id="clip-path-20"><rect class="cls-2" x="-216" y="2" width="16" height="12" rx="1"/></clipPath><clipPath id="clip-path-21"><rect class="cls-2" x="-215" y="3" width="14" height="10"/></clipPath><clipPath id="clip-path-22"><path class="cls-1" d="M-207,9h4v1h-4Zm1-2h3V8h-3Zm0-2h2V6h-2Z"/></clipPath><clipPath id="clip-path-23"><polygon class="cls-1" points="-211.21 7.64 -212.67 8.29 -213.37 6.85 -214.91 6.41 -214.52 4.86 -215.42 3.53 -214.12 2.59 -213.96 1 -212.36 1.11 -211.21 0 -210.06 1.11 -208.46 1 -208.29 2.59 -207 3.53 -207.89 4.86 -207.51 6.41 -209.04 6.85 -209.75 8.29 -211.21 7.64"/></clipPath><clipPath id="clip-path-24"><polygon class="cls-1" points="-213.37 8 -212.87 9 -211.21 8.3 -209.55 9 -209.04 8 -209.04 16 -211.21 14.5 -213.37 16 -213.37 8"/></clipPath><clipPath id="clip-path-25"><circle class="cls-2" cx="-211.21" cy="4.27" r="1.55"/></clipPath><clipPath id="clip-path-26"><path class="cls-1" d="M-172,0a8,8,0,0,0-8,8,8,8,0,0,0,8,8,8,8,0,0,0,8-8,8,8,0,0,0-8-8"/></clipPath><clipPath id="clip-path-27"><path class="cls-1" d="M-172,1a7,7,0,0,0-7,7,7,7,0,0,0,7,7,7,7,0,0,0,7-7,7,7,0,0,0-7-7"/></clipPath><clipPath id="clip-path-28"><path class="cls-1" d="M-172.53,12.2a.64.64,0,0,1-.73-.71.64.64,0,0,1,.73-.71.65.65,0,0,1,.74.71A.64.64,0,0,1-172.53,12.2Zm.51-3.48V10h-1V8c1.19-.1,2.31-.46,2.31-1.78,0-1.06-.59-1.33-1.35-1.33a1.37,1.37,0,0,0-1.51,1.25l-.93-.17A2.25,2.25,0,0,1-172,4.07c1.24,0,2.33.51,2.33,2.15S-170.67,8.45-172,8.72Z"/></clipPath></defs><title>icon_mt</title><path class="cls-31" d="M15,11.54c0-2.85-2.11-3.47-4.69-3.47H9.73a3.9,3.9,0,0,1,1.93,3.57v3.54L15,15.07Z"/><path class="cls-31" d="M8.24,5.41a2.51,2.51,0,1,0,0-3.2,3.11,3.11,0,0,1,.46,1.6A3.11,3.11,0,0,1,8.24,5.41Z"/><path class="cls-31" d="M11,15.07V11.54c0-2.85-2.16-3.47-4.8-3.47H5.8c-2.64,0-4.8.62-4.8,3.47v3.53Z"/><circle class="cls-31" cx="5.59" cy="3.81" r="2.51"/></svg>