<?xml version="1.0" encoding="utf-8"?>
<!-- Generator: Adobe Illustrator 24.3.0, SVG Export Plug-In . SVG Version: 6.00 Build 0)  -->
<svg version="1.1" id="Layer_1" xmlns="http://www.w3.org/2000/svg" xmlns:xlink="http://www.w3.org/1999/xlink" x="0px" y="0px"
	 viewBox="0 0 20 20" style="enable-background:new 0 0 20 20;" xml:space="preserve">
<style type="text/css">
	.st0{fill-rule:evenodd;clip-rule:evenodd;}
</style>
<path class="st0" d="M10.2,12.2l0.8-0.8c0.2-0.1,0.5-0.2,0.7-0.2h5.6c0.9,0,1.7,0.8,1.7,1.7c0,0.9-0.8,1.7-1.7,1.7h-5.6
	c-0.9,0-1.7-0.7-1.7-1.7C10,12.7,10.1,12.5,10.2,12.2z M15.6,6.8h1.7c0.9,0,1.7,0.8,1.7,1.7c0,0.9-0.8,1.7-1.7,1.7h-5.1L15.6,6.8z
	 M11.7,15.8h5.6c0.9,0,1.7,0.8,1.7,1.7s-0.8,1.7-1.7,1.7h-5.6c-0.9,0-1.7-0.8-1.7-1.7S10.7,15.8,11.7,15.8z M11.7,2.3h5.6
	C18.2,2.3,19,3,19,4s-0.8,1.7-1.7,1.7h-5.6C10.7,5.7,10,4.9,10,4S10.7,2.3,11.7,2.3z M5.5,6.8V2.3c-0.1-0.6,0.4-1.2,1-1.2
	c0.6-0.1,1.2,0.4,1.2,1c0,0.1,0,0.1,0,0.2v4.5h4.5l-5.6,6.7L1,6.8H5.5z"/>
</svg>
