<svg id="Layer_1" data-name="Layer 1" xmlns="http://www.w3.org/2000/svg" viewBox="0 0 20 20"><defs><style>.cls-1{fill:#fff;fill-rule:evenodd;}</style></defs><title>icon_ir</title><path id="icon-chart-bar" class="cls-1" d="M1,12A1.13,1.13,0,0,1,2.13,10.9H4.36A1.13,1.13,0,0,1,5.5,12v5.62a1.13,1.13,0,0,1-1.14,1.13H2.13A1.12,1.12,0,0,1,1,17.65ZM7.75,7.52A1.13,1.13,0,0,1,8.88,6.4h2.23a1.13,1.13,0,0,1,1.14,1.12V17.66a1.12,1.12,0,0,1-1.14,1.12H8.88a1.13,1.13,0,0,1-1.13-1.12ZM14.5,1.9A1.12,1.12,0,0,1,15.63.78h2.23A1.13,1.13,0,0,1,19,1.9V17.65a1.13,1.13,0,0,1-1.14,1.13H15.63a1.13,1.13,0,0,1-1.13-1.13Z"/></svg>