<?xml version="1.0" encoding="utf-8"?>
<!-- Generator: Adobe Illustrator 24.3.0, SVG Export Plug-In . SVG Version: 6.00 Build 0)  -->
<svg version="1.1" id="Layer_1" xmlns="http://www.w3.org/2000/svg" xmlns:xlink="http://www.w3.org/1999/xlink" x="0px" y="0px"
	 viewBox="0 0 16 16" style="enable-background:new 0 0 16 16;" xml:space="preserve">
<path d="M15,11.5c0-2.8-2.1-3.5-4.7-3.5H9.7c1.3,0.7,2,2.1,1.9,3.6v3.5l3.3-0.1V11.5z"/>
<path d="M8.2,5.4c0.9,1.1,2.5,1.2,3.5,0.3s1.2-2.5,0.3-3.5S9.6,1,8.6,1.9C8.5,2,8.3,2.1,8.2,2.2c0.3,0.5,0.5,1,0.5,1.6
	C8.7,4.4,8.5,4.9,8.2,5.4z"/>
<path d="M11,15.1v-3.5c0-2.8-2.2-3.5-4.8-3.5H5.8C3.2,8.1,1,8.7,1,11.5v3.5H11z"/>
<circle cx="5.6" cy="3.8" r="2.5"/>
</svg>
