<?xml version="1.0" encoding="utf-8"?>
<!-- Generator: Adobe Illustrator 24.3.0, SVG Export Plug-In . SVG Version: 6.00 Build 0)  -->
<svg version="1.1" id="Layer_1" xmlns="http://www.w3.org/2000/svg" xmlns:xlink="http://www.w3.org/1999/xlink" x="0px" y="0px"
	 viewBox="0 0 20 20" style="enable-background:new 0 0 20 20;" xml:space="preserve">
<path d="M16.8,1H3.2C2,1,1,2,1,3.2v13.5C1,18,2,19,3.2,19h13.5c1.2,0,2.2-1,2.2-2.2V3.2C19,2,18,1,16.8,1z M7.6,16
	c-3.3,0-6-2.8-5.9-6.1c0-3.3,2.8-6,6.1-5.9c1.2,0,2.4,0.4,3.4,1.1C8.4,3.9,5.2,5.1,4,7.8s0,5.9,2.7,7.1c1.4,0.6,3,0.6,4.3,0
	C10,15.6,8.8,16,7.6,16z M18.5,11.1l-3.1-0.2l2.1,2.3l-2.7-1.6l0.9,3L14,12l-0.4,3l-0.4-3l-1.7,2.5l0.9-3l-2.7,1.6l2.1-2.3l-3.1,0.2
	l2.9-1.1L8.7,8.9l3.1,0.2L9.6,6.9l2.7,1.6l-0.9-3L13.1,8l0.4-3L14,8l1.7-2.6l-0.9,3l2.7-1.6l-2.1,2.3l3.1-0.2L15.6,10L18.5,11.1z"/>
</svg>
