<?xml version="1.0" encoding="utf-8"?>
<!-- Generator: Adobe Illustrator 24.3.0, SVG Export Plug-In . SVG Version: 6.00 Build 0)  -->
<svg version="1.1" id="Layer_1" xmlns="http://www.w3.org/2000/svg" xmlns:xlink="http://www.w3.org/1999/xlink" x="0px" y="0px"
	 viewBox="0 0 20 20" style="enable-background:new 0 0 20 20;" xml:space="preserve">
<circle cx="10" cy="10.2" r="3.4"/>
<path d="M18.9,8.8l-1.5-0.5c-0.2-0.7-0.5-1.3-0.8-1.9l0.7-1.5c-0.5-0.7-1.2-1.4-1.9-1.9l-1.5,0.7c-0.6-0.3-1.2-0.6-1.9-0.8l-0.6-1.5
	c-0.4-0.1-0.9-0.1-1.3-0.1c-0.5,0-0.9,0-1.4,0.1L8.1,2.8C7.4,3,6.7,3.3,6.1,3.6L4.7,2.9c-0.7,0.6-1.4,1.3-2,2l0.7,1.5
	C3.1,7,2.8,7.6,2.6,8.3L1.1,8.8C1,9.3,1,9.7,1,10.2c0,0.5,0,0.9,0.1,1.4l1.5,0.5c0.2,0.7,0.5,1.3,0.8,1.9l-0.7,1.5
	c0.5,0.7,1.2,1.4,1.9,1.9l1.5-0.7C6.7,17,7.3,17.3,8,17.5L8.6,19c0.4,0.1,0.9,0.1,1.3,0.1c0.5,0,0.9,0,1.4-0.1l0.5-1.5
	c0.7-0.2,1.3-0.5,1.9-0.8l1.5,0.7c0.7-0.5,1.4-1.2,1.9-1.9L16.6,14c0.3-0.6,0.6-1.2,0.8-1.9l1.5-0.6c0.1-0.4,0.1-0.9,0.1-1.3
	C19,9.7,19,9.3,18.9,8.8z M10,15.7c-3,0-5.5-2.5-5.5-5.5S7,4.7,10,4.7s5.5,2.5,5.5,5.5C15.5,13.2,13,15.7,10,15.7z"/>
</svg>
