<?xml version="1.0" encoding="utf-8"?>
<!-- Generator: Adobe Illustrator 26.5.0, SVG Export Plug-In . SVG Version: 6.00 Build 0)  -->
<svg version="1.1" id="Layer_1" xmlns="http://www.w3.org/2000/svg" xmlns:xlink="http://www.w3.org/1999/xlink" x="0px" y="0px"
	 viewBox="0 0 20 20" style="enable-background:new 0 0 20 20;" xml:space="preserve">
<style type="text/css">
	.st0{fill:#FFFFFF;}
	.st1{clip-path:url(#SVGID_00000134947462766101347890000003478527866211505798_);}
	.st2{clip-path:url(#SVGID_00000152983862015013704840000001733406098289710010_);fill:#FFFFFF;}
</style>
<path d="M19.5,9.3v7.2c0,1.5-1.3,3-2.9,3.1h-0.2H3.6c-1.5,0-3-1.4-3.1-3v-0.2V9.3l9.2,4.4c0.1,0.1,0.2,0.1,0.4,0.1
	c0.1,0,0.2,0,0.2-0.1h0.1L19.5,9.3z M10,7.2c1.7,0,3.3,1.3,3.3,2.8v0.2L10,11.8l-3.4-1.6V10C6.7,8.4,8.3,7.2,10,7.2z M14,0.5
	c0.8,0,1.6,0.6,1.7,1.6v0.1v3.1l3.4,2.1l-5.3,2.5v-6c-0.3,0-0.8-0.5-0.9-1.4V2.4H7.2c0,0.7-0.5,1.4-0.8,1.5H6.2V10L0.9,7.5l3.4-2.1
	V2.2c0-0.8,0.6-1.6,1.6-1.7H6H14z M10,3.4c0.5,0,0.9,0.4,0.9,0.9s-0.4,1-0.9,1s-0.9-0.4-0.9-1S9.5,3.4,10,3.4z"/>
<g>
	<g>
		<g>
			<polygon id="SVGID_1_" class="st0" points="15.5,11.8 15,12.9 14.5,12.7 14.7,14.6 13.8,13.6 13.6,14.2 12.7,14 13.1,15 
				12.5,15.2 14.1,16.5 13.9,17.2 15.5,17 15.5,18.8 15.8,18.8 15.8,17 17.2,17.3 17.1,16.5 18.6,15.2 18.3,15 18.4,14 17.6,14.2 
				17.5,13.6 16.6,14.5 16.8,12.7 16.2,12.9 			"/>
		</g>
		<g>
			<g>
				<g>
					<defs>
						<polygon id="SVGID_00000029739587759335254260000007501995017067406728_" points="15.5,11.8 15,12.9 14.5,12.7 14.7,14.6 
							13.8,13.6 13.6,14.2 12.7,14 13.1,15 12.5,15.2 14.1,16.5 13.9,17.2 15.5,17 15.5,18.8 15.8,18.8 15.8,17 17.2,17.3 
							17.1,16.5 18.6,15.2 18.3,15 18.4,14 17.6,14.2 17.5,13.6 16.6,14.5 16.8,12.7 16.2,12.9 						"/>
					</defs>
					<use xlink:href="#SVGID_00000029739587759335254260000007501995017067406728_"  style="overflow:visible;fill:#FFFFFF;"/>
					<clipPath id="SVGID_00000123402134985932543880000013117445715330097811_">
						<use xlink:href="#SVGID_00000029739587759335254260000007501995017067406728_"  style="overflow:visible;"/>
					</clipPath>
					<g style="clip-path:url(#SVGID_00000123402134985932543880000013117445715330097811_);">
						<g>
							
								<rect id="SVGID_00000098932400661636846380000011678241014487294629_" x="6.4" y="10.6" class="st0" width="24.4" height="24.4"/>
						</g>
						<g>
							<g>
								<g>
									<defs>
										<rect id="SVGID_00000015326576676900498450000008579631624229658787_" x="6.4" y="10.6" width="24.4" height="24.4"/>
									</defs>
									<use xlink:href="#SVGID_00000015326576676900498450000008579631624229658787_"  style="overflow:visible;fill:#FFFFFF;"/>
									<clipPath id="SVGID_00000169526164603968384440000011234071443095934872_">
										<use xlink:href="#SVGID_00000015326576676900498450000008579631624229658787_"  style="overflow:visible;"/>
									</clipPath>
									
										<rect x="4.9" y="4.2" style="clip-path:url(#SVGID_00000169526164603968384440000011234071443095934872_);fill:#FFFFFF;" width="21.3" height="22.2"/>
								</g>
							</g>
						</g>
					</g>
				</g>
			</g>
		</g>
	</g>
</g>
</svg>
