<svg id="Layer_1" data-name="Layer 1" xmlns="http://www.w3.org/2000/svg" viewBox="0 0 20 20"><defs><style>.cls-1{fill:#fff;}</style></defs><title>icon_pr_cet</title><path class="cls-1" d="M18,10.8a5.07,5.07,0,0,0-8,4.11,5.14,5.14,0,0,0,.55,2.31l.57,1.63H8.87v-4.5L5.09,15.84S5.56,14,5.56,14a.23.23,0,0,0-.06-.16L1,10.23l1-.59a.24.24,0,0,0,.12-.2s-.84-2.67-.84-2.67l2.47.48A.26.26,0,0,0,4,7.16l.75-1.34,2,2.29a.35.35,0,0,0,.22.08.31.31,0,0,0,.31-.31.2.2,0,0,0,0-.07L6.09,3S7.94,4,8,4a.22.22,0,0,0,.16-.09L9.86.85,11.6,3.92a.2.2,0,0,0,.16.09s1.88-1,1.88-1-1.11,4.87-1.11,4.89a.31.31,0,0,0,.31.31.33.33,0,0,0,.22-.08l2-2.29.75,1.34a.26.26,0,0,0,.19.09l2.46-.48s-.84,2.64-.84,2.67a.24.24,0,0,0,.12.2l1,.59Zm-3,8.05A3.94,3.94,0,1,1,19,14.91,3.94,3.94,0,0,1,15.06,18.85Zm.56-4.5V12.1H14.5v3.37h3.37V14.35Z"/></svg>