<svg id="Layer_1" data-name="Layer 1" xmlns="http://www.w3.org/2000/svg" viewBox="0 0 20 20"><defs><style>.cls-1{fill:#fff;fill-rule:evenodd;}</style></defs><title>icon_ar</title><path class="cls-1" d="M10.16,12.24l.8-.79a1.59,1.59,0,0,1,.72-.17h5.63a1.69,1.69,0,1,1,0,3.38H11.68A1.69,1.69,0,0,1,10,13,1.77,1.77,0,0,1,10.16,12.24Zm5.46-5.46h1.69a1.69,1.69,0,1,1,0,3.38H12.25Zm-3.94,9h5.63a1.69,1.69,0,1,1,0,3.38H11.68a1.69,1.69,0,0,1,0-3.38Zm0-13.5h5.63a1.69,1.69,0,1,1,0,3.38H11.68a1.69,1.69,0,0,1,0-3.38ZM5.5,6.78V2.29a1.13,1.13,0,1,1,2.25,0V6.78h4.5L6.62,13.53,1,6.78Z"/></svg>