<svg id="Layer_1" data-name="Layer 1" xmlns="http://www.w3.org/2000/svg" viewBox="0 0 20 20"><defs><style>.cls-1{fill:#fff;fill-rule:evenodd;}</style></defs><title>icon_as</title><path id="icon-padlock-locked" class="cls-1" d="M12.25,6.75c0-1.13-.31-3.38-2.25-3.38S7.75,5.65,7.75,6.75H5.5c0-3.11,1.39-5.63,4.5-5.63s4.5,2.52,4.5,5.63ZM4.41,7.87H16.74A1.14,1.14,0,0,1,17.87,9v9a1.12,1.12,0,0,1-1.13,1.12H3.25A1.13,1.13,0,0,1,2.12,18V9A1.13,1.13,0,0,1,3.25,7.87Zm6.71,6.45a2.25,2.25,0,1,0-2.25,0v2.55h2.25Z"/></svg>