<?xml version="1.0" encoding="utf-8"?>
<!-- Generator: Adobe Illustrator 24.3.0, SVG Export Plug-In . SVG Version: 6.00 Build 0)  -->
<svg version="1.1" id="Layer_1" xmlns="http://www.w3.org/2000/svg" xmlns:xlink="http://www.w3.org/1999/xlink" x="0px" y="0px"
	 viewBox="0 0 20 20" style="enable-background:new 0 0 20 20;" xml:space="preserve">
<style type="text/css">
	.st0{fill-rule:evenodd;clip-rule:evenodd;}
</style>
<path id="icon-chart-bar" class="st0" d="M1,12c0-0.6,0.5-1.1,1.1-1.1h2.2c0.6,0,1.1,0.5,1.1,1.1v5.6c0,0.6-0.5,1.1-1.1,1.1
	c0,0,0,0,0,0H2.1c-0.6,0-1.1-0.5-1.1-1.1V12z M7.8,7.5c0-0.6,0.5-1.1,1.1-1.1h2.2c0.6,0,1.1,0.5,1.1,1.1c0,0,0,0,0,0v10.1
	c0,0.6-0.5,1.1-1.1,1.1c0,0,0,0,0,0H8.9c-0.6,0-1.1-0.5-1.1-1.1V7.5z M14.5,1.9c0-0.6,0.5-1.1,1.1-1.1c0,0,0,0,0,0h2.2
	c0.6,0,1.1,0.5,1.1,1.1c0,0,0,0,0,0v15.8c0,0.6-0.5,1.1-1.1,1.1c0,0,0,0,0,0h-2.2c-0.6,0-1.1-0.5-1.1-1.1V1.9z"/>
</svg>
