<svg id="Layer_1" data-name="Layer 1" xmlns="http://www.w3.org/2000/svg" viewBox="0 0 20 20"><defs><style>.cls-1{fill:#fff;}</style></defs><title>icon_ta</title><path class="cls-1" d="M3.25,1a2,2,0,0,0-.75.14V3.67L7.85,1Z"/><path class="cls-1" d="M18.59,8.52l-.8-.07L18.48,8,18,7.37l.75.28L19,7V3.25A2.25,2.25,0,0,0,16.75,1H10.06V2.1L6.21,4h3.85v3H6.21L10.06,9v1.1H7.85L2.5,7.4v2.67H1v6.68A2.25,2.25,0,0,0,3.25,19h13.5A2.25,2.25,0,0,0,19,16.75v-8l-.52.54ZM7.32,17.68,5.83,16.11,4.34,17.68l.29-2.14L2.5,15.35l1.83-1.09-1.18-1.8,2,.77.66-2.05.66,2.05,2-.77-1.19,1.8,1.84,1.09L7,15.54ZM14,3.66l.75.29L15,3.18l.25.77L16,3.66l-.45.68.7.41-.81.07.11.8L15,5l-.56.59.11-.8-.8-.07.69-.41ZM12.62,10l-.55.58.1-.8-.8-.07.69-.41-.44-.67.76.29.24-.77.25.77.76-.29-.44.67.69.41-.81.07.12.8Zm3,7.76L15,17.13l-.56.58.11-.8-.8-.07.69-.41L14,15.76l.75.29.25-.77.25.77.76-.29-.45.67.7.41-.81.07Zm1.72-5.79-.46-.34-.47.34.18-.55L16.07,11h.58l.18-.54L17,11h.58l-.47.34Z"/></svg>