<svg id="Layer_1" data-name="Layer 1" xmlns="http://www.w3.org/2000/svg" viewBox="0 0 20 20"><defs><style>.cls-1{fill:#fff;}</style></defs><title>icon_tm</title><path class="cls-1" d="M16.75,1H3.25A2.25,2.25,0,0,0,1,3.25v13.5A2.25,2.25,0,0,0,3.25,19h13.5A2.25,2.25,0,0,0,19,16.75V3.25A2.25,2.25,0,0,0,16.75,1ZM7.55,16A6,6,0,1,1,11.07,5.09a5.37,5.37,0,1,0,0,9.82A6,6,0,0,1,7.55,16Zm11-4.92-3.1-.25,2.12,2.27-2.68-1.57.93,3L14,12,13.59,15,13.14,12,11.4,14.54l.93-3L9.65,13.14l2.12-2.27-3.09.25L11.57,10,8.68,8.88l3.09.25L9.65,6.86l2.68,1.57-.93-3L13.14,8,13.59,5,14,8l1.73-2.58-.93,3,2.68-1.57L15.4,9.13l3.1-.25L15.6,10Z"/></svg>