<?xml version="1.0" encoding="utf-8"?>
<!-- Generator: Adobe Illustrator 24.3.0, SVG Export Plug-In . SVG Version: 6.00 Build 0)  -->
<svg version="1.1" id="Layer_1" xmlns="http://www.w3.org/2000/svg" xmlns:xlink="http://www.w3.org/1999/xlink" x="0px" y="0px"
	 viewBox="0 0 20 20" style="enable-background:new 0 0 20 20;" xml:space="preserve">
<path d="M3.2,1C3,1,2.7,1,2.5,1.1v2.5L7.8,1H3.2z"/>
<path d="M18.6,8.5l-0.8-0.1L18.5,8L18,7.4l0.8,0.3L19,7V3.2C19,2,18,1,16.8,1h-6.7v1.1L6.2,4h3.8v3H6.2l3.9,2v1.1H7.8L2.5,7.4v2.7H1
	v6.7C1,18,2,19,3.2,19h13.5c1.2,0,2.2-1,2.2-2.2v-8l-0.5,0.5L18.6,8.5z M7.3,17.7l-1.5-1.6l-1.5,1.6l0.3-2.1l-2.1-0.2l1.8-1.1
	l-1.2-1.8l2,0.8l0.7-2.1l0.7,2.1l2-0.8l-1.2,1.8l1.8,1.1L7,15.5L7.3,17.7z M14,3.7L14.8,4L15,3.2L15.2,4L16,3.7l-0.4,0.7l0.7,0.4
	l-0.8,0.1l0.1,0.8L15,5l-0.6,0.6l0.1-0.8l-0.8-0.1l0.7-0.4L14,3.7z M12.6,10l-0.6,0.6l0.1-0.8l-0.8-0.1l0.7-0.4l-0.4-0.7l0.8,0.3
	l0.2-0.8l0.2,0.8l0.8-0.3l-0.4,0.7l0.7,0.4l-0.8,0.1l0.1,0.8L12.6,10z M15.6,17.8L15,17.1l-0.6,0.6l0.1-0.8l-0.8-0.1l0.7-0.4
	L14,15.8l0.8,0.3l0.2-0.8l0.2,0.8l0.8-0.3l-0.4,0.7l0.7,0.4l-0.8,0.1L15.6,17.8z M17.3,12l-0.5-0.3L16.4,12l0.2-0.6L16.1,11h0.6
	l0.2-0.5L17,11h0.6l-0.5,0.3L17.3,12z"/>
</svg>
