<svg id="Layer_1" data-name="Layer 1" xmlns="http://www.w3.org/2000/svg" viewBox="0 0 20 20"><defs><style>.cls-1{fill:#fff;fill-rule:evenodd;}</style></defs><title>icon_tx</title><path id="Combined-Shape" class="cls-1" d="M3.25.88h13.5A2.25,2.25,0,0,1,19,3.13v13.5a2.25,2.25,0,0,1-2.25,2.25H3.25A2.25,2.25,0,0,1,1,16.63V3.13A2.25,2.25,0,0,1,3.25.88ZM7.18,8.76A1.69,1.69,0,1,0,5.5,7.07,1.69,1.69,0,0,0,7.18,8.76Zm5.63,5.62a1.69,1.69,0,1,0-1.69-1.69A1.69,1.69,0,0,0,12.81,14.38Zm.75-8.87-7.95,8,.79.8,8-8Z"/></svg>